<?xml version="1.0" encoding="UTF-8" standalone="no"?>
<svg
   data-name="Ğ¡Ğ»Ğ¾Ğ¹ 1"
   viewBox="0 0 69.488998 69.488999"
   x="0px"
   y="0px"
   version="1.1"
   id="svg8"
   sodipodi:docname="logo.svg"
   width="69.488998"
   height="69.488998"
   inkscape:version="1.3 (0e150ed6c4, 2023-07-21)"
   inkscape:export-filename="noun-sherlock-holmes-2824425.png"
   inkscape:export-xdpi="1105.2032"
   inkscape:export-ydpi="1105.2032"
   xmlns:inkscape="http://www.inkscape.org/namespaces/inkscape"
   xmlns:sodipodi="http://sodipodi.sourceforge.net/DTD/sodipodi-0.dtd"
   xmlns="http://www.w3.org/2000/svg"
   xmlns:svg="http://www.w3.org/2000/svg"
   xmlns:rdf="http://www.w3.org/1999/02/22-rdf-syntax-ns#"
   xmlns:cc="http://creativecommons.org/ns#"
   xmlns:dc="http://purl.org/dc/elements/1.1/">
  <defs
     id="defs8" />
  <sodipodi:namedview
     id="namedview8"
     pagecolor="#ffffff"
     bordercolor="#666666"
     borderopacity="1.0"
     inkscape:showpageshadow="2"
     inkscape:pageopacity="0.0"
     inkscape:pagecheckerboard="0"
     inkscape:deskcolor="#d1d1d1"
     inkscape:zoom="14.648"
     inkscape:cx="34.680502"
     inkscape:cy="43.384762"
     inkscape:window-width="3840"
     inkscape:window-height="2066"
     inkscape:window-x="-11"
     inkscape:window-y="-11"
     inkscape:window-maximized="1"
     inkscape:current-layer="svg8" />
  <title
     id="title1">rtt</title>
  <path
     d="m 56.895212,25.176469 c 2.52864,0.2181 4.86765,0.416 7.20584,0.62319 a 3.82171,3.82171 0 0 1 2.6637,1.38136 c 0.97379,1.15844 2.14827,2.14988 2.50214,3.7747 a 6.61272,6.61272 0 0 1 -1.083,5.64619 13.37826,13.37826 0 0 1 -3.762,3.98012 15.85992,15.85992 0 0 1 -3.046,1.39686 c -1.16175,0.365 -2.40024,0.47932 -3.59363,0.75365 a 2.67113,2.67113 0 0 0 -1.07241,0.52322 q -2.06431,1.71351 -4.07193,3.495 c -0.59182,0.5246 -1.06849,1.1545 -1.673,1.69223 -1.79908,1.60056 -4.1305,1.92078 -6.19085,2.86556 a 8.586,8.586 0 0 0 -2.86489,2.2164 c -1.97381,2.216 -3.8365,4.5474 -5.96569,6.60259 a 23.49321,23.49321 0 0 1 -4.65254,3.20788 15.65053,15.65053 0 0 1 -6.42713,2.382 34.7297,34.7297 0 0 1 -8.22878,-0.254 15.74523,15.74523 0 0 1 -4.72339,-1.22983 c -1.14045,-0.56069 -2.2508301,-1.1874 -3.3477901,-1.83048 -1.05675,-0.61953 -2.07113,-1.31088 -3.11823,-1.94739 a 13.00147,13.00147 0 0 1 -4.85337,-5.58953 6.2,6.2 0 0 1 -0.1587,-4.92224 12.16988,12.16988 0 0 1 4.4339,-5.72258 c 1.65579,-1.28109 3.25245,-2.63865 4.91029,-3.917 1.3410001,-1.034 1.5510601,-2.61145 1.9921501,-4.04931 0.97518,-3.1793 1.72214,-6.43214 2.78208,-9.581 a 31.7457,31.7457 0 0 1 4.995,-9.29566 c 1.21679,-1.576 2.27287,-3.29818 3.96989,-4.4501 1.31,-0.88915 2.59458,-1.81663 3.92051,-2.681 0.5598,-0.3649305 1.1671,-0.5976605 1.25227,-1.4095305 0.06951,-0.66323 0.63485,-0.70617 1.17435,-0.70574 1.00282,8e-4 2.00565,-0.00586 3.16861,-0.01 -0.18912,-0.56772 -0.30174,-0.89581 -0.40772,-1.226 a 2.30235,2.30235 0 0 1 0.50132,-2.6700099 3.26825,3.26825 0 0 1 3.341,-0.2395 28.90334,28.90334 0 0 1 2.2881,2.2194199 c 0.38017,-0.266 0.95615,-0.67159 1.53517,-1.07282 a 4.8872,4.8872 0 0 1 0.89162,-0.5848799 c 0.72352,-0.29077 1.475,-0.5231 2.14484,0.1416599 a 2.19223,2.19223 0 0 1 0.18587,2.44078 c -0.315,0.518 -0.71848,0.98212 -1.174,1.5932 1.198,0.53255 2.332,0.94849 3.37952,1.5224805 1.6716,0.916 3.40273,1.75354 4.44512,3.52348 0.58419,0.99183 1.52027,1.73083 2.21646,2.68209 a 33.44232,33.44232 0 0 1 4.2514,8.08582 c 0.08956,0.23814 0.19415,0.47064 0.2639,0.63872 z m -28.51153,12.47637 a 19.97463,19.97463 0 0 0 5.51117,1 c 0.09185,-2.29608 0.17624,-4.40627 0.26531,-6.63424 -1.46625,-0.17234 -2.83165,-0.33545 -4.19783,-0.49224 -0.60036,-0.0689 -1.04389,0.17882 -1.10739,0.78735 -0.18413,1.76398 -0.31573,3.53345 -0.47126,5.33913 z m -6.93147,17.2677 c -2.04555,-0.97832 -3.83157,-1.84368 -5.63193,-2.6782 a 0.841,0.841 0 0 0 -0.71976,0.0018 19.22908,19.22908 0 0 0 -3.56015,3.261 21.62014,21.62014 0 0 0 6.34008,2.66178 q 1.66903,-1.51696 3.57176,-3.24635 z m -7.85441,8.03956 c 0.89216,-1.17987 1.73514,-2.29476 2.61291,-3.45565 a 5.443,5.443 0 0 0 -0.67687,-0.42714 c -1.117,-0.4873 -2.26444,-0.91 -3.35873,-1.44276 -2.2173901,-1.07955 -2.4145201,-1.05721 -3.9900801,0.94131 -0.24379,0.30918 -0.44562,0.65146 -0.73323,1.07661 a 15.00731,15.00731 0 0 0 6.1460001,3.30763 z m 19.94807,-22.61122 -5.40729,-1.143 c 0.04573,2.04789 0.086,3.85029 0.12951,5.79885 l 5.0957,0.599 c 0.06088,-1.75719 0.12006,-3.4645 0.18208,-5.25485 z m -19.61276,10.93545 c -1.61194,-0.919 -3.07625,-1.81855 -4.6095901,-2.57874 a 1.67536,1.67536 0 0 0 -1.38731,0.26243 c -0.93058,0.657 -1.768,1.446 -2.83554,2.34459 1.46084,1.03529 2.751,1.93386 4.02254,2.85818 a 1.096,1.096 0 0 0 1.5224301,-0.06343 c 1.03494,-0.89109 2.0721,-1.77965 3.28747,-2.82303 z m 5.571,7.61277 c 2.01695,0.58348 3.71562,1.0887 5.42578,1.55159 a 0.86409,0.86409 0 0 0 0.70187,-0.19656 13.95069,13.95069 0 0 0 2.95881,-3.22225 c -1.84612,-0.57154 -3.59252,-1.12068 -5.34736,-1.64153 a 0.669,0.669 0 0 0 -0.56,0.14045 c -0.98844,1.01743 -1.95141,2.05948 -3.17915,3.3683 z m 14.081,-6.72291 a 35.9625,35.9625 0 0 1 -4.13966,-0.83477 c -1.74481,-0.57177 -2.93166,0.20774 -4.04482,1.32863 a 16.24052,16.24052 0 0 0 -1.0951,1.38121 14.71985,14.71985 0 0 0 5.68968,1.41333 0.9666,0.9666 0 0 0 0.66155,-0.309 c 0.926,-0.91275 1.82612,-1.85175 2.92826,-2.9794 z m -2.52522,-27.45495 a 23.83561,23.83561 0 0 0 -1.446,5.30941 15.19188,15.19188 0 0 0 4.85766,0.37539 l 0.58355,-4.96471 z m 3.84388,15.31888 c -0.0537,1.68162 -0.106,3.14643 -0.14539,4.6116 -0.02687,0.99914 0.22351,1.32007 1.21882,1.29458 a 4.82178,4.82178 0 0 0 3.01639,-0.69935 c -0.116,-1.79935 -0.23469,-3.638 -0.35919,-5.56779 z m -16.81749,20.06044 c -1.112,1.21443 -2.03117,2.21828 -3.06015,3.342 a 14.63567,14.63567 0 0 0 1.66509,0.46235 c 0.95666,0.14675 1.942,0.13934 2.88406,0.34181 2.13367,0.45859 3.24575,-0.8332 4.45275,-2.41651 -2.08591,-0.60719 -4.02047,-1.17037 -5.94175,-1.72965 z m -7.71436,-12.90319 a 21.57966,21.57966 0 0 0 4.43252,2.78765 0.84806,0.84806 0 0 0 0.72361,0.03818 c 0.89053,-0.60936 1.96773,-1.031 2.45623,-2.11167 -1.32026,-1.10093 -2.56862,-2.14187 -3.77295,-3.14612 a 6.50007,6.50007 0 0 0 -3.83941,2.43196 z m 28.67836,-15.64674 -3.4635,0.62472 c -0.076,2.12141 -0.71471,4.134 -0.26628,6.36907 l 3.43448,-0.71645 c 0.10069,-2.14095 0.19323,-4.10844 0.2953,-6.27734 z m -12.20965,7.54585 -3.51211,-1.44946 -0.62886,5.35015 c 0.98918,0.477 1.97306,1.0036 2.99912,1.42841 0.71226,0.2949 1.28052,-0.04694 1.28559,-0.79938 0.01025,-1.51586 -0.08983,-3.03243 -0.14374,-4.52972 z m 9.33376,18.18225 c -1.744,-0.05543 -3.15523,-0.125 -4.56659,-0.12651 a 1.51871,1.51871 0 0 0 -0.95565,0.37387 c -1.13658,1.0721 -2.22895,2.19108 -3.51368,3.46925 1.81621,0.53509 3.41615,0.88942 4.93688,0.03806 a 13.16912,13.16912 0 0 0 4.09904,-3.75467 z m 19.61633,-30.45847 a 14.64858,14.64858 0 0 0 -3.631,3.514 0.70914,0.70914 0 0 0 -0.13913,0.55841 8.22373,8.22373 0 0 0 1.93362,3.81479 48.72874,48.72874 0 0 0 2.98416,-4.25681 0.57987,0.57987 0 0 0 0.04931,-0.43306 c -0.37241,-1.03169 -0.76612,-2.05569 -1.19696,-3.19733 z m -5.21,5.1397 c -1.19824,1.01555 -2.267,1.92133 -3.399,2.8808 0.708,1.37068 1.39241,2.69562 2.16349,4.18836 1.26039,-1.02381 2.34992,-1.90885 3.5291,-2.86668 -0.78658,-1.44111 -1.50523,-2.75787 -2.29363,-4.20248 z m -25.016,18.69158 a 8.17871,8.17871 0 0 0 -0.83043,-0.36193 c -1.403,-0.40911 -2.91093,-0.388 -4.24038,-1.15752 a 1.6543,1.6543 0 0 0 -1.43442,0.16476 21.06523,21.06523 0 0 0 -2.19835,1.99768 c 1.94817,0.75827 3.59106,1.41211 5.24945,2.02389 a 0.84385,0.84385 0 0 0 0.70372,-0.1536 c 0.90044,-0.78256 1.76582,-1.60547 2.75034,-2.51328 z m 26.562,-5.58841 q 1.79491,-1.9659 3.41086,-3.73575 c -0.81653,-1.23719 -1.5126,-2.29191 -2.30293,-3.48944 -0.93477,0.72035 -1.84952,1.35928 -2.67076,2.10166 a 1.2041,1.2041 0 0 0 -0.20655,1.075 c 0.50795,1.30895 1.11552,2.57924 1.76933,4.04853 z m -26.98917,-14.53111 c -0.488,1.9497 -0.929,3.71122 -1.4015,5.59889 1.1004,0.472 2.14533,0.92022 3.32172,1.42483 l 0.75305,-6.40673 z M 3.9470419,52.466809 c -0.38285,0.39154 -0.6193,0.65855 -0.88163,0.89707 -0.89656,0.815 -0.96064,1.03967 -0.35451,2.05062 a 10.04568,10.04568 0 0 0 3.189,3.18736 c 0.87829,-0.86864 1.69459,-1.67595 2.615,-2.58626 z M 22.270112,22.019719 a 29.01719,29.01719 0 0 0 -1.826,4.7832 c 1.1232,0.57475 2.09632,1.0727 3.39613,1.73785 0.01134,-2.1027 1.37756,-3.48668 1.541,-5.424 z m -0.85925,12.88536 c 0.60929,-1.838 1.14672,-3.45937 1.70986,-5.15827 -1.07967,-0.5189 -2.02628,-0.97381 -3.0176,-1.45026 a 12.07307,12.07307 0 0 0 -1.6565,5.05442 c 1.01696,0.53319 1.95328,1.02405 2.96424,1.55411 z m 25.07935,-1.53241 a 7.95064,7.95064 0 0 0 3.12739,-2.74852 0.90575,0.90575 0 0 0 0.14674,-0.72013 c -0.3359,-1.039 -0.72879,-2.05967 -1.01641,-2.852 -1.3011,0.8708 -2.51754,1.68494 -3.87682,2.59465 z m -29.9422,5.85977 c 1.121,0.77748 2.11647,1.76015 3.73335,1.90107 l 0.56752,-4.82834 c -0.93694,-0.4801 -1.98148,-1.01538 -3.09677,-1.58689 -0.42367,1.58832 -0.80051,3.00106 -1.2041,4.51416 z m 22.6192,-9.33333 a 21.9704,21.9704 0 0 0 0.55325,-4.81743 c -0.986,0.06268 -1.83916,0.08859 -2.68519,0.18 a 0.99586,0.99586 0 0 0 -0.96761,1.13014 c -0.0095,0.69675 -0.19907,1.38927 -0.242,2.08782 -0.04152,0.67567 0.0032,1.35662 0.01172,2.20415 1.22813,-0.28943 2.20646,-0.51998 3.32983,-0.78468 z m 6.03262,11.82791 a 3.48934,3.48934 0 0 0 2.418,-1.2932 1.05027,1.05027 0 0 0 0.21333,-0.93907 11.42551,11.42551 0 0 0 -2.29811,-3.77879 l -2.63143,1.22531 c 0.81841,1.70422 1.56059,3.24963 2.29821,4.78575 z m -17.3661,7.45148 c 2.118,0.41052 4.088,0.79232 6.23171,1.20783 -0.06112,-0.71216 -0.07091,-1.164 -0.1432,-1.60554 -0.23458,-1.43231 -0.51513,-1.64766 -1.9976,-1.7792 -0.815,-0.07232 -1.62079,-0.244 -2.4338,-0.34629 -0.4368,-0.055 -0.88013,-0.05822 -1.35035,-0.08661 z m 9.78877,-31.73709 c 3.44434,-0.197 3.9035,-0.2762 4.81816,-3.12477 -1.211,-0.48859 -1.48484,-2.10289 -2.829,-2.53589 -1.53565,1.6325 -1.01064,3.77718 -1.98916,5.66062 z m 11.21145,23.93973 -2.85453,1.99008 c 0.64243,1.62642 1.19517,3.02587 1.77168,4.48542 1.1264,-0.53486 2.21389,-0.86043 2.83908,-1.99723 -0.56352,-1.43692 -1.13074,-2.88332 -1.75623,-4.47827 z m -4.76517,-13.63124 c 1.74216,-0.28419 2.6773,-1.37586 3.79148,-2.43069 -0.49234,-1.03718 -0.98131,-2.0673 -1.53429,-3.2322 -1.0612,0.64883 -1.98816,1.16842 -2.85356,1.7757 a 1.07522,1.07522 0 0 0 -0.39358,0.89547 c 0.26464,1.0097 0.64691,1.98858 0.98995,2.99172 z m -3.0015,-9.10349 c -1.299,0.16466 -2.16032,0.22811 -2.99768,0.4051 a 1.1419,1.1419 0 0 0 -0.74848,0.62724 11.33,11.33 0 0 0 -0.61962,4.10484 6.229,6.229 0 0 0 2.76085,-0.36526 0.835,0.835 0 0 0 0.534,-0.48495 c 0.35918,-1.31336 0.667,-2.64082 1.07093,-4.28697 z m 10.21827,10.33467 c 1.35439,-1.39192 2.49794,-2.56713 3.7818,-3.8865 -0.60026,-0.7421 -1.16484,-1.44011 -1.714,-2.119 -1.52245,0.49045 -2.26747,1.64777 -3.20015,2.56134 a 0.81849,0.81849 0 0 0 -0.04974,0.7069 c 0.30791,0.79736 0.67216,1.57296 1.18209,2.73726 z m -10.46734,23.52402 c -1.85548,0.06577 -3.3223,0.10992 -4.78792,0.17965 a 1.14813,1.14813 0 0 0 -0.53583,0.23863 17.27113,17.27113 0 0 0 -1.47582,1.07039 c -0.48,0.40977 -0.90441,0.88474 -1.35313,1.33121 a 22.87017,22.87017 0 0 0 4.55912,0.27258 1.12555,1.12555 0 0 0 0.7,-0.25045 c 0.91844,-0.86597 1.80529,-1.76548 2.89358,-2.84201 z m 3.606,-7.93284 c -0.74758,0.46141 -1.39529,0.84912 -2.03062,1.25621 -0.91484,0.58619 -1.03746,1.1034 -0.46926,2.0264 a 7.69981,7.69981 0 0 0 0.72173,0.98457 2.39679,2.39679 0 0 0 3.048,0.23941 1.13937,1.13937 0 0 0 0.3022,-0.92435 7.43082,7.43082 0 0 0 -1.57205,-3.58224 z m -29.25743,-1.812 a 12.43712,12.43712 0 0 0 4.67915,3.33824 15.83878,15.83878 0 0 0 0.21364,-1.99513 1.86034,1.86034 0 0 0 -0.35146,-1.26194 18.92744,18.92744 0 0 0 -3.4829,-2.28436 c -0.37638,0.78343 -0.67715,1.40949 -1.05846,2.20317 z m 28.08743,-12.73972 c -0.35047,0.06253 -0.59974,0.09362 -0.84224,0.15251 -1.12058,0.27207 -1.24633,0.447 -1.23931,1.66872 a 4.90456,4.90456 0 0 0 0.0064,1.06548 c 0.21444,0.91147 0.19472,1.969 1.32547,2.45047 a 7.34319,7.34319 0 0 0 2.70553,-1.14 c -0.66125,-1.41911 -1.27807,-2.74277 -1.95585,-4.19718 z m -14.92,-12.68008 a 8.695,8.695 0 0 0 -1.40675,-0.68142 1.13429,1.13429 0 0 0 -0.96958,0.16828 12.261,12.261 0 0 0 -2.71067,4.02859 l 2.83492,1.05877 c 0.77733,-1.57883 1.48594,-3.01814 2.25208,-4.57422 z m 7.41475,2.17256 c -1.271,-0.582 -1.9676,-0.60878 -2.29649,0.03332 -0.6148,1.20046 -1.14443,2.4445 -1.793,3.85161 1.28033,0.2262 2.35557,0.41617 3.55893,0.6288 z m -0.06931,30.7438 a 6.67344,6.67344 0 0 0 4.74168,-0.13448 4.62441,4.62441 0 0 0 -1.37975,-2.92994 l -3.71267,0.4582 c 0.13456,0.99988 0.24644,1.83136 0.35074,2.60622 z m -6.04615,-25.68634 c -2.05025,-0.9492 -2.243,-0.86771 -2.91044,1.10575 -0.24529,0.72526 -0.52575,1.43981 -0.74,2.17389 a 7.83647,7.83647 0 0 0 -0.15439,1.21911 c 0.84743,0.19443 1.57219,0.36074 2.49605,0.57272 0.46149,-1.78838 0.88776,-3.44001 1.30878,-5.07147 z m -7.54318,22.75392 4.25553,1.60907 0.33112,-2.81708 c -1.088,-0.4503 -2.09852,-0.89357 -3.1282,-1.28695 -0.84658,-0.32341 -1.08384,-0.17675 -1.24366,0.71462 -0.08907,0.49648 -0.1234,1.00274 -0.21479,1.78034 z m 25.61565,-26.12333 c 0.43242,1.1002 0.81347,2.0698 1.26588,3.22089 a 15.122,15.122 0 0 0 1.595,-1.24964 c 2.02647,-2.12 1.90459,-2.08388 0.1038,-4.02 -0.02834,-0.03046 -0.09052,-0.02942 0.02567,0.0048 z m -3.69185,21.59341 c -1.167,-1.54653 -1.38075,-3.48676 -2.72949,-4.94485 -0.37058,2.25088 -0.21966,4.47969 -0.45271,6.78426 1.42655,-0.11911 2.19417,-0.92556 3.1822,-1.83941 z m -32.45106,-1.44546 c -1.7331501,1.32461 -3.3821001,1.9223 -4.2625801,3.5453 l 1.26426,1.388 c 1.417,-1.08856 2.6962501,-2.07123 3.8924401,-2.9901 -0.30427,-0.6613 -0.57839,-1.25702 -0.89412,-1.9432 z m 3.497,-10.85783 c 0.6749,0.6808 0.85869,1.77983 2.09011,1.77214 0.2388,-1.69729 1.36892,-3.13 1.18982,-5.04142 l -1.78578,-0.84889 c -0.5284,1.45638 -0.99395,2.73957 -1.49415,4.11819 z m 41.41023,8.85365 a 8.77264,8.77264 0 0 0 1.01023,-6.38078 c -2.987,2.16634 -3.27092,3.68072 -1.24731,6.23247 a 1.31791,1.31791 0 0 0 0.23708,0.14833 z m -11.97922,-21.66765 c -0.86151,0.2524 -1.55121,0.3141 -1.66116,1.08783 -0.17679,1.24376 -0.30143,2.4949 -0.49191,4.11549 l 3.328,-2.17627 c -0.41324,-1.06464 -0.77608,-1.99947 -1.17493,-3.02705 z m 1.36254,-0.5943 c 0.3862,0.92872 0.76038,1.82857 1.25686,3.02252 1.00678,-1.05241 1.79436,-1.87565 2.6743,-2.79541 -0.62541,-0.76288 -1.147,-1.3992 -1.51325,-1.846 z m -26.74027,8.787 c 0.66222,-1.55647 1.27321,-2.99245 1.9134,-4.49717 l -1.49306,-0.8107 c -0.61334,0.98182 -1.18723,1.87319 -1.7334,2.78124 -0.73612,1.22394 -0.67482,1.43687 0.554,2.15484 0.17247,0.10075 0.35913,0.17711 0.75906,0.37183 z m 44.03112,8.60741 c -0.16946,-0.96234 -0.317,-1.66253 -0.41052,-2.36986 a 0.921,0.921 0 0 0 -1.15022,-0.91212 c -0.35588,0.04 -0.71035,0.09794 -1.06257,0.16324 a 0.78722,0.78722 0 0 0 -0.70038,1.001 4.25721,4.25721 0 0 0 1.02155,2.7603 z m -34.86804,-11.95328 c 0.56758,0.19607 0.93473,0.34208 1.31286,0.44911 a 0.91121,0.91121 0 0 0 1.20648,-0.637 c 0.404,-1.13534 0.76787,-2.28493 1.16,-3.464 a 5.301,5.301 0 0 0 -0.67628,-0.46123 2.64955,2.64955 0 0 0 -0.61032,-0.12749 10.77933,10.77933 0 0 0 -2.39274,4.24061 z m -13.11021,15.72067 c 0.4241,-1.23435 0.788,-2.28571 1.1462,-3.33894 a 1.0927,1.0927 0 0 0 -0.4842,-1.44473 c -0.38092,-0.22659 -0.75367,-0.467 -1.31276,-0.8149 -0.38718,1.503 -0.72535,2.81583 -1.088,4.22358 z m 43.53759,2.24845 c 1.405,0.15542 2.69841,-0.30236 2.9587,-1.23578 a 3.37629,3.37629 0 0 1 1.17889,-1.72223 c 0.18921,-0.16277 0.231,-0.497 0.35233,-0.78135 -2.77751,-0.31776 -3.38668,0.90249 -4.48988,3.73936 z m -54.6880001,9.34071 c 1.21893,-0.89587 2.2713,-1.66934 3.48029,-2.55794 -0.70444,-0.49356 -1.29406,-0.9067 -1.95095,-1.36695 l -2.32561,2.59755 c 0.31415,0.52359 0.54192,0.90321 0.79633,1.32734 z m 20.7538901,-33.674 c -0.582,-0.77906 -1.16028,-0.69505 -1.64753,-0.21773 a 18.46318,18.46318 0 0 0 -1.90247,2.15308 c -0.83173,1.11842 -0.68775,1.394 0.75252,1.74507 q 1.40346,-1.84625 2.79754,-3.68041 z m 40.05542,17.68491 a 23.56637,23.56637 0 0 0 2.2281,-1.00953 1.044,1.044 0 0 0 0.382,-0.86149 4.14288,4.14288 0 0 0 -0.45983,-1.11537 c -0.97825,0.064 -1.77183,0.11592 -2.632,0.17221 a 4.67425,4.67425 0 0 0 0.48173,2.81418 z m -4.33031,-6.577 -2.48759,-0.16913 c 0.5568,2.87316 0.99289,3.43542 3.261,2.08081 -0.22031,-0.54451 -0.44475,-1.09929 -0.77341,-1.91165 z m -32.795,-12.12233 c 1.54138,1.26656 2.46685,0.97768 3.57337,-0.865 -0.3021,-0.5451 -0.5648,-1.01919 -0.866,-1.5627 -0.89389,0.80156 -1.79171,1.60666 -2.70739,2.42773 z m 9.48588,-1.61622 -0.35329,-0.12287 a 47.02756,47.02756 0 0 0 -2.357,4.20564 c 0.87051,0.077 1.6785,0.57145 1.96926,-0.46523 0.33162,-1.1821 0.50109,-2.40967 0.74101,-3.61751 z m -7.00115,-2.62056 -0.30758,-0.32552 c -1.607,1.11928 -3.21405,2.23855 -4.851,3.37873 0.39571,0.70383 0.81525,0.88209 1.31339,0.442 1.298,-1.14662 2.56549,-2.32784 3.84519,-3.49521 z m 11.602,-0.32481 c 0.59448,0.90173 0.9756,1.94577 2.06437,2.4498 l 1.48411,-1.00954 a 6.12987,6.12987 0 0 0 -3.54852,-1.44026 z m -28.76457,27.69239 c -0.61588,2.11285 -0.35924,2.69231 1.41653,3.31988 l 0.254,-2.16084 z m 21.79304,-24.41221 c -1.23317,0.82278 -2.65685,1.47282 -3.3266,3.12459 l 1.69205,0.19889 c 0.26033,-0.64611 0.45468,-1.22362 0.72209,-1.765 0.26592,-0.53836 0.60528,-1.04048 0.91246,-1.55848 z m -0.41041,-7.4838905 a 2.566,2.566 0 0 0 2.10837,1.40189 c 0.0988,-1.29574 -0.2015,-2.00339 -0.91532,-2.237 -0.73037,-0.2391 -0.99263,0.2304 -1.19305,0.83514 z m 7.58056,-0.26611 a 3.11153,3.11153 0 0 0 -2.68823,2.04454 c 1.90582,-0.20189 2.51536,-0.63789 2.68823,-2.04454 z m 22.95591,31.3372005 c 1.11514,-0.622 1.11514,-0.622 1.76639,-2.23394 -2.09773,0.28351 -2.19824,0.41058 -1.76639,2.23393 z m -37.37115,25.52527 c -1.59621,-0.7997 -1.62311,-0.79248 -2.77164,0.72887 a 2.93414,2.93414 0 0 0 2.77164,-0.72887 z m 35.54118,-35.246 c 0.428,1.63255 0.50612,1.66467 2.4161,0.95655 a 2.60364,2.60364 0 0 0 -2.4161,-0.95657 z m -21.76424,1.03473 c 0.60905,0.07647 1.2443,0.17 1.19128,-0.55439 a 3.25443,3.25443 0 0 0 -0.875,-2.13628 z m 3.89278,-13.5237 1.62516,-1.08659 c -1.34322,-0.29802 -1.34322,-0.29802 -1.62516,1.08659 z"
     id="path7" />
  <metadata
     id="metadata8">
    <rdf:RDF>
      <cc:Work
         rdf:about="">
        <dc:title>rtt</dc:title>
      </cc:Work>
    </rdf:RDF>
  </metadata>
</svg>
