<?xml version="1.0" encoding="UTF-8" standalone="no"?>
<svg
   width="547.92535"
   height="548"
   viewBox="0 0 547.92535 548"
   fill="none"
   version="1.1"
   id="svg1"
   sodipodi:docname="songkick.svg"
   inkscape:version="1.3 (0e150ed6c4, 2023-07-21)"
   xmlns:inkscape="http://www.inkscape.org/namespaces/inkscape"
   xmlns:sodipodi="http://sodipodi.sourceforge.net/DTD/sodipodi-0.dtd"
   xmlns="http://www.w3.org/2000/svg"
   xmlns:svg="http://www.w3.org/2000/svg">
  <defs
     id="defs1" />
  <sodipodi:namedview
     id="namedview1"
     pagecolor="#ffffff"
     bordercolor="#666666"
     borderopacity="1.0"
     inkscape:showpageshadow="2"
     inkscape:pageopacity="0.0"
     inkscape:pagecheckerboard="0"
     inkscape:deskcolor="#d1d1d1"
     inkscape:zoom="1.6680791"
     inkscape:cx="273.36833"
     inkscape:cy="274.26757"
     inkscape:window-width="2560"
     inkscape:window-height="1377"
     inkscape:window-x="-8"
     inkscape:window-y="-8"
     inkscape:window-maximized="1"
     inkscape:current-layer="svg1" />
  <path
     d="m 273.94034,0 c 103.615,0 193.969,57.822 240.521,142.881 0.947,1.731 0.457,3.905 -1.156,5.042 -32.919,23.179 -52.795,10.816 -116.924,-35.291 -9.94,-7.145 -20.2,-14.535 -31.438,-22.322 -45.608,-31.635 -108.348,-38.475 -156.14,-17.039 -56.831,25.498 -87.46,90.082 -68.282,143.947 12.413,34.827 44.127,63.042 89.323,79.455 14.337,5.206 28.659,8.993 42.508,12.672 16.689,4.428 32.447,8.612 46.723,14.795 18.598,8.077 39.592,23.666 42.692,43.163 3.634,22.871 -20.033,47.285 -44.433,55.728 -35.148,12.169 -78.344,2.596 -105.034,-23.299 -12.429,-12.046 -23.026,-28.154 -34.248,-45.224 -21.438,-32.612 -45.746,-69.576 -89.766005,-84.127 -28.242,-9.332 -55.924,-8.995 -82.7458999,0.924 -2.6866,0.993 -5.60639996,-0.972 -5.53929996,-3.836 C 3.4708351,119.394 125.01734,0 273.92534,0 Z m 0,547.985 c -126.74,0 -233.645005,-86.48 -264.8238049,-203.536 -0.4294,-1.612 0.2045,-3.33 1.5974999,-4.248 19.4313,-12.808 37.5563,-15.528 57.4483,-8.961 22.842,7.542 38.355005,31.147 56.326005,58.492 12.628,19.207 25.683,39.071 43.181,56.033 31.103,30.155 74.42,46.598 117.616,46.598 17.987,0 35.958,-2.855 53.014,-8.764 49.089,-16.993 96.178,-67.057 86.757,-126.342 -6.092,-38.323 -36.172,-72.676 -80.467,-91.914 -18.704,-8.123 -37.576,-13.13 -55.823,-17.955 -13.07,-3.466 -25.407,-6.733 -37.072,-10.963 -15.575,-5.649 -42.891,-18.443 -50.815,-40.704 -8.551,-24.002 10.963,-53.56 34.141,-63.958 27.163,-12.184 66.42,-7.466 93.354,11.222 10.78,7.481 20.827,14.703 30.553,21.696 59.255,42.613 111.391,80.086 176.043,45.078 2.349,-1.272 5.333,-0.051 5.934,2.552 4.582,19.839 7.021,40.494 7.021,61.704 0,151.077 -122.914,273.985 -274,273.985 z"
     fill="#ffffff"
     id="path1" />
</svg>
